<svg width="32" height="32" viewBox="0 0 32 32" fill="none" xmlns="http://www.w3.org/2000/svg">
<mask id="path-1-inside-1_108_120" fill="white">
<path fill-rule="evenodd" clip-rule="evenodd" d="M3.66125 9.37946L1.90132 8.43514L1.90231 8.43328C2.21971 7.84193 2.5724 7.27403 2.95747 6.73212C4.81295 4.12088 7.4202 2.1131 10.4537 0.992036C14.1175 -0.361919 18.15 -0.328928 21.7911 1.08479C25.4322 2.49851 28.4304 5.1953 30.2206 8.66683C32.0107 12.1384 32.4692 16.1448 31.5096 19.931C30.5499 23.7172 28.2385 27.0216 25.0109 29.2214C21.7832 31.4211 17.8625 32.3642 13.9876 31.8729C10.1127 31.3817 6.55129 29.4899 3.97476 26.5543C1.84143 24.1237 0.505287 21.1164 0.117595 17.9366C0.0370533 17.276 -0.00255452 16.608 0.000127625 15.9361L2.00011 15.9441C2.00004 15.9627 2 15.9814 2 16C2 23.6628 8.15637 29.8877 15.7928 29.9985C15.9354 30.0006 16.0779 30.0005 16.2202 29.9983C19.8536 29.9423 23.1512 28.5021 25.6089 26.1818C25.7943 26.0069 25.9746 25.8272 26.1497 25.6429C28.4986 23.1713 29.9542 19.8426 29.9989 16.1744C30 16.0902 30.0003 16.006 29.9998 15.9218C29.9996 15.8892 29.9993 15.8565 29.9989 15.8239C29.9047 8.17761 23.6806 2.00734 16.0137 2.00001C16.0091 2 16.0046 2 16 2C15.9943 2 15.9887 2 15.983 2.00001C12.1921 2.00451 8.75412 3.51575 6.23579 5.96704C6.22066 5.98176 6.20557 5.99651 6.19052 6.0113C6.11478 6.08567 6.03988 6.16092 5.96583 6.23702C5.95154 6.25171 5.93727 6.26643 5.92305 6.28119C5.03505 7.2017 4.27201 8.24356 3.66125 9.37946Z"/>
</mask>
<path fill-rule="evenodd" clip-rule="evenodd" d="M3.66125 9.37946L1.90132 8.43514L1.90231 8.43328C2.21971 7.84193 2.5724 7.27403 2.95747 6.73212C4.81295 4.12088 7.4202 2.1131 10.4537 0.992036C14.1175 -0.361919 18.15 -0.328928 21.7911 1.08479C25.4322 2.49851 28.4304 5.1953 30.2206 8.66683C32.0107 12.1384 32.4692 16.1448 31.5096 19.931C30.5499 23.7172 28.2385 27.0216 25.0109 29.2214C21.7832 31.4211 17.8625 32.3642 13.9876 31.8729C10.1127 31.3817 6.55129 29.4899 3.97476 26.5543C1.84143 24.1237 0.505287 21.1164 0.117595 17.9366C0.0370533 17.276 -0.00255452 16.608 0.000127625 15.9361L2.00011 15.9441C2.00004 15.9627 2 15.9814 2 16C2 23.6628 8.15637 29.8877 15.7928 29.9985C15.9354 30.0006 16.0779 30.0005 16.2202 29.9983C19.8536 29.9423 23.1512 28.5021 25.6089 26.1818C25.7943 26.0069 25.9746 25.8272 26.1497 25.6429C28.4986 23.1713 29.9542 19.8426 29.9989 16.1744C30 16.0902 30.0003 16.006 29.9998 15.9218C29.9996 15.8892 29.9993 15.8565 29.9989 15.8239C29.9047 8.17761 23.6806 2.00734 16.0137 2.00001C16.0091 2 16.0046 2 16 2C15.9943 2 15.9887 2 15.983 2.00001C12.1921 2.00451 8.75412 3.51575 6.23579 5.96704C6.22066 5.98176 6.20557 5.99651 6.19052 6.0113C6.11478 6.08567 6.03988 6.16092 5.96583 6.23702C5.95154 6.25171 5.93727 6.26643 5.92305 6.28119C5.03505 7.2017 4.27201 8.24356 3.66125 9.37946Z" fill="black"/>
<path d="M1.90132 8.43514L1.02019 7.96225L0.547262 8.84346L1.42851 9.31631L1.90132 8.43514ZM3.66125 9.37946L3.18844 10.2606L4.06884 10.733L4.542 9.85303L3.66125 9.37946ZM1.90231 8.43328L1.02121 7.96036L1.02119 7.9604L1.90231 8.43328ZM2.95747 6.73212L3.77263 7.31135L3.77263 7.31135L2.95747 6.73212ZM10.4537 0.992036L10.8004 1.93003L10.4537 0.992036ZM21.7911 1.08479L22.153 0.152591V0.15259L21.7911 1.08479ZM30.2206 8.66683L31.1094 8.20851V8.20851L30.2206 8.66683ZM31.5096 19.931L30.5402 19.6853L31.5096 19.931ZM25.0109 29.2214L24.4477 28.395H24.4477L25.0109 29.2214ZM13.9876 31.8729L13.8618 32.865L13.9876 31.8729ZM3.97476 26.5543L4.72634 25.8947H4.72634L3.97476 26.5543ZM0.117595 17.9366L-0.875054 18.0576L0.117595 17.9366ZM0.000127625 15.9361L0.00411971 14.9361L-0.995872 14.9321L-0.999864 15.9321L0.000127625 15.9361ZM2.00011 15.9441L3.0001 15.948L3.00401 14.9481L2.0041 14.9441L2.00011 15.9441ZM15.7928 29.9985L15.8076 28.9986L15.8073 28.9986L15.7928 29.9985ZM16.2202 29.9983L16.2048 28.9984L16.2045 28.9984L16.2202 29.9983ZM25.6089 26.1818L24.9226 25.4545L24.9225 25.4547L25.6089 26.1818ZM26.1497 25.6429L25.4248 24.954L25.4247 24.9541L26.1497 25.6429ZM29.9989 16.1744L28.999 16.1619L28.999 16.1622L29.9989 16.1744ZM29.9998 15.9218L30.9998 15.9162V15.9162L29.9998 15.9218ZM29.9989 15.8239L28.999 15.8362L28.999 15.8365L29.9989 15.8239ZM16.0137 2.00001L16.0146 1.00001H16.0146L16.0137 2.00001ZM15.983 2.00001L15.9818 1.00001H15.9818L15.983 2.00001ZM6.23579 5.96704L6.93323 6.68368L6.93329 6.68362L6.23579 5.96704ZM6.19052 6.0113L6.89118 6.72479L6.89119 6.72478L6.19052 6.0113ZM5.96583 6.23702L6.68254 6.9344L6.68254 6.93439L5.96583 6.23702ZM5.92305 6.28119L6.64275 6.97547L6.64282 6.97539L5.92305 6.28119ZM1.42851 9.31631L3.18844 10.2606L4.13405 8.49829L2.37412 7.55397L1.42851 9.31631ZM1.02119 7.9604L1.02019 7.96225L2.78244 8.90803L2.78344 8.90617L1.02119 7.9604ZM2.14231 6.15289C1.73316 6.72868 1.35843 7.33208 1.02121 7.96036L2.78342 8.9062C3.081 8.35177 3.41164 7.81937 3.77263 7.31135L2.14231 6.15289ZM10.1071 0.0540382C6.88394 1.24517 4.11375 3.37844 2.14231 6.15289L3.77263 7.31135C5.51214 4.86331 7.95646 2.98102 10.8004 1.93003L10.1071 0.0540382ZM22.153 0.15259C18.2843 -1.34949 13.9998 -1.38454 10.1071 0.0540382L10.8004 1.93003C14.2351 0.660701 18.0156 0.69163 21.4291 2.01699L22.153 0.15259ZM31.1094 8.20851C29.2073 4.52001 26.0217 1.65467 22.153 0.152591L21.4291 2.01699C24.8427 3.34235 27.6535 5.87059 29.3318 9.12516L31.1094 8.20851ZM32.4789 20.1767C33.4986 16.1539 33.0114 11.897 31.1094 8.20851L29.3318 9.12515C31.0101 12.3797 31.4399 16.1358 30.5402 19.6853L32.4789 20.1767ZM25.574 30.0477C29.0034 27.7105 31.4593 24.1996 32.4789 20.1767L30.5402 19.6853C29.6406 23.2349 27.4736 26.3328 24.4477 28.395L25.574 30.0477ZM13.8618 32.865C17.9789 33.387 22.1447 32.3849 25.574 30.0477L24.4477 28.395C21.4218 30.4573 17.7461 31.3414 14.1133 30.8809L13.8618 32.865ZM3.22319 27.214C5.96074 30.333 9.74469 32.343 13.8618 32.865L14.1133 30.8809C10.4806 30.4203 7.14183 28.6468 4.72634 25.8947L3.22319 27.214ZM-0.875054 18.0576C-0.463132 21.4362 0.956504 24.6314 3.22319 27.214L4.72634 25.8947C2.72636 23.616 1.47371 20.7966 1.11024 17.8156L-0.875054 18.0576ZM-0.999864 15.9321C-1.00271 16.646 -0.960632 17.3557 -0.875054 18.0576L1.11024 17.8156C1.03474 17.1963 0.997605 16.57 1.00012 15.9401L-0.999864 15.9321ZM2.0041 14.9441L0.00411971 14.9361L-0.00386446 16.9361L1.99612 16.9441L2.0041 14.9441ZM3 16C3 15.9828 3.00004 15.9654 3.0001 15.948L1.00012 15.9402C1.00004 15.96 1 15.98 1 16H3ZM15.8073 28.9986C8.71664 28.8958 3 23.1154 3 16H1C1 24.2102 7.59609 30.8797 15.7783 30.9984L15.8073 28.9986ZM15.778 30.9984C15.9308 31.0007 16.0834 31.0006 16.2359 30.9982L16.2045 28.9984C16.0723 29.0005 15.94 29.0006 15.8076 28.9986L15.778 30.9984ZM24.9225 25.4547C22.6393 27.6101 19.5786 28.9464 16.2048 28.9984L16.2356 30.9982C20.1286 30.9382 23.663 29.3941 26.2954 26.909L24.9225 25.4547ZM26.2953 26.9091C26.4938 26.7217 26.687 26.5291 26.8746 26.3317L25.4247 24.9541C25.2621 25.1253 25.0947 25.2921 24.9226 25.4545L26.2953 26.9091ZM28.999 16.1622C28.9574 19.5685 27.6068 22.658 25.4248 24.954L26.8745 26.3318C29.3903 23.6846 30.9509 20.1168 30.9989 16.1866L28.999 16.1622ZM30.9989 16.1868C31 16.0966 31.0003 16.0064 30.9998 15.9162L28.9998 15.9274C29.0003 16.0056 29 16.0838 28.999 16.1619L30.9989 16.1868ZM30.9998 15.9162C30.9996 15.8813 30.9993 15.8463 30.9988 15.8113L28.999 15.8365C28.9994 15.8668 28.9996 15.8971 28.9998 15.9274L30.9998 15.9162ZM16.0127 3.00001C23.1319 3.00681 28.9115 8.73638 28.999 15.8362L30.9988 15.8116C30.8978 7.61885 24.2293 1.00786 16.0146 1.00001L16.0127 3.00001ZM16 3C16.0042 3 16.0085 3 16.0127 3.00001L16.0146 1.00001C16.0097 1 16.0049 1 16 1V3ZM15.9842 3.00001C15.9895 3 15.9947 3 16 3V1C15.9939 1 15.9879 1 15.9818 1.00001L15.9842 3.00001ZM6.93329 6.68362C9.27275 4.40644 12.4637 3.00419 15.9842 3.00001L15.9818 1.00001C11.9204 1.00483 8.2355 2.62505 5.53829 5.25046L6.93329 6.68362ZM5.53835 5.25039C5.52216 5.26615 5.50599 5.28196 5.48984 5.29781L6.89119 6.72478C6.90516 6.71106 6.91917 6.69736 6.93323 6.68368L5.53835 5.25039ZM5.48985 5.29781C5.40871 5.37749 5.32846 5.45811 5.24911 5.53965L6.68254 6.93439C6.7513 6.86372 6.82086 6.79385 6.89118 6.72479L5.48985 5.29781ZM5.24912 5.53965C5.2338 5.5554 5.21851 5.57118 5.20327 5.58698L6.64282 6.97539C6.65604 6.96169 6.66928 6.94802 6.68254 6.9344L5.24912 5.53965ZM4.542 9.85303C5.10906 8.79843 5.81773 7.8307 6.64275 6.97547L5.20334 5.5869C4.25238 6.57269 3.43497 7.68869 2.78049 8.90588L4.542 9.85303Z" fill="white" mask="url(#path-1-inside-1_108_120)"/>
<path d="M2 3V9.5H8" stroke="white" stroke-width="2"/>
<path d="M16 5V16H26" stroke="white" stroke-width="2"/>
</svg>
