<svg width="37" height="32" viewBox="0 0 37 32" fill="none" xmlns="http://www.w3.org/2000/svg">
<mask id="path-1-inside-1_31_702" fill="white">
<path d="M33.1912 14.5185C33.1912 17.2531 32.3084 19.9321 30.6445 22.247C28.9806 24.562 26.6031 26.4187 23.786 27.6035C20.9688 28.7883 17.8264 29.253 14.7207 28.9441C11.6149 28.6351 8.67197 27.5651 6.23078 25.8572C3.78959 24.1494 1.94937 21.873 0.921998 19.2904C-0.105372 16.7077 -0.278117 13.9238 0.42365 11.259C1.12542 8.59422 2.67316 6.15701 4.88869 4.22798C7.10421 2.29895 9.89742 0.956528 12.9467 0.355278L16.5956 14.5185H33.1912Z"/>
</mask>
<path d="M33.1912 14.5185C33.1912 17.2531 32.3084 19.9321 30.6445 22.247C28.9806 24.562 26.6031 26.4187 23.786 27.6035C20.9688 28.7883 17.8264 29.253 14.7207 28.9441C11.6149 28.6351 8.67197 27.5651 6.23078 25.8572C3.78959 24.1494 1.94937 21.873 0.921998 19.2904C-0.105372 16.7077 -0.278117 13.9238 0.42365 11.259C1.12542 8.59422 2.67316 6.15701 4.88869 4.22798C7.10421 2.29895 9.89742 0.956528 12.9467 0.355278L16.5956 14.5185H33.1912Z" stroke="white" stroke-width="4" mask="url(#path-1-inside-1_31_702)"/>
<path d="M8.79428 29.3333C8.79428 30.3358 8.06712 31 7.34575 31C6.62437 31 5.89722 30.3358 5.89722 29.3333C5.89722 28.3308 6.62437 27.6666 7.34575 27.6666C8.06712 27.6666 8.79428 28.3308 8.79428 29.3333Z" stroke="white" stroke-width="2"/>
<path d="M27.2943 29.3333C27.2943 30.3358 26.5671 31 25.8457 31C25.1244 31 24.3972 30.3358 24.3972 29.3333C24.3972 28.3308 25.1244 27.6666 25.8457 27.6666C26.5671 27.6666 27.2943 28.3308 27.2943 29.3333Z" stroke="white" stroke-width="2"/>
<path d="M16.3235 15.1111L0.544075 15.1111" stroke="white" stroke-width="2"/>
<path d="M28.8381 17.7778V12.0273C28.8381 9.95811 30.1127 8.10266 32.0442 7.36024L33.4631 6.81482" stroke="white" stroke-width="2"/>
<mask id="path-6-inside-2_31_702" fill="white">
<ellipse cx="35.0956" cy="6.8148" rx="1.90441" ry="2.07407"/>
</mask>
<path d="M35 6.8148C35 6.88931 34.973 6.92439 34.969 6.92871C34.9676 6.93021 34.9762 6.92036 35.0001 6.90934C35.026 6.89739 35.0603 6.88887 35.0956 6.88887V10.8889C37.4092 10.8889 39 8.90074 39 6.8148H35ZM35.0956 6.88887C35.1309 6.88887 35.1651 6.89739 35.1911 6.90934C35.215 6.92036 35.2235 6.93021 35.2221 6.92871C35.2182 6.92439 35.1912 6.88931 35.1912 6.8148H31.1912C31.1912 8.90074 32.782 10.8889 35.0956 10.8889V6.88887ZM35.1912 6.8148C35.1912 6.74028 35.2182 6.70521 35.2221 6.70088C35.2235 6.69939 35.215 6.70924 35.1911 6.72025C35.1651 6.73221 35.1309 6.74072 35.0956 6.74072V2.74072C32.782 2.74072 31.1912 4.72885 31.1912 6.8148H35.1912ZM35.0956 6.74072C35.0603 6.74072 35.026 6.73221 35.0001 6.72025C34.9762 6.70924 34.9676 6.69939 34.969 6.70088C34.973 6.70521 35 6.74028 35 6.8148H39C39 4.72885 37.4092 2.74072 35.0956 2.74072V6.74072Z" fill="white" mask="url(#path-6-inside-2_31_702)"/>
</svg>
