<svg width="69" height="28" viewBox="0 0 69 28" fill="none" xmlns="http://www.w3.org/2000/svg">
<path d="M0.52 26.48C0.44 26.48 0.4 26.44 0.4 26.36C0.4 26.2533 0.466667 26.1333 0.6 26C0.76 25.84 0.893333 25.7733 1 25.8C1.64 25.8 2.21333 25.8133 2.72 25.84C3.22667 25.84 3.66667 25.84 4.04 25.84C5 25.84 5.70667 25.7467 6.16 25.56C6.61333 25.3467 6.97333 24.92 7.24 24.28C7.50667 23.64 7.82667 22.6533 8.2 21.32C9.02667 18.4133 9.70667 15.6267 10.24 12.96C10.7733 10.2667 11.28 7.46667 11.76 4.56C11.7867 4.48 11.8 4.36 11.8 4.2C11.8 3.74667 11.6667 3.37333 11.4 3.08C11.1333 2.76 10.8533 2.57333 10.56 2.52C10.2933 2.46667 9.84 2.42667 9.2 2.4C8.58667 2.37333 7.97333 2.36 7.36 2.36C6.74667 2.33333 6.34667 2.33333 6.16 2.36C6.02667 2.36 5.96 2.30667 5.96 2.2C5.96 2.09333 6.02667 1.98667 6.16 1.88C6.29333 1.74667 6.42667 1.68 6.56 1.68C7.6 1.68 8.81333 1.70667 10.2 1.76C11.5867 1.81333 12.8933 1.84 14.12 1.84C14.44 1.84 14.7333 1.84 15 1.84C15.2933 1.84 15.5733 1.82667 15.84 1.8C16.2933 1.77333 17 1.74667 17.96 1.72C18.9467 1.69333 19.9733 1.68 21.04 1.68C21.3867 1.68 21.72 1.69333 22.04 1.72C22.3867 1.72 22.7067 1.72 23 1.72H23.04C23.12 1.72 23.16 1.76 23.16 1.84C23.16 1.94667 23.0933 2.08 22.96 2.24C22.8267 2.37333 22.7067 2.42667 22.6 2.4C21.9333 2.4 21.3333 2.38667 20.8 2.36C20.2933 2.33333 19.8267 2.32 19.4 2.32C18.4667 2.32 17.76 2.42667 17.28 2.64C16.8 2.82666 16.4267 3.25333 16.16 3.92C15.8933 4.56 15.5733 5.54667 15.2 6.88C14.9867 7.70667 14.7333 8.73333 14.44 9.96C14.1733 11.1867 13.8933 12.4933 13.6 13.88C13.3067 15.24 13.0267 16.5867 12.76 17.92C12.52 19.2533 12.3067 20.4667 12.12 21.56C11.9333 22.6267 11.8133 23.4667 11.76 24.08C11.7067 24.5867 11.8133 24.9733 12.08 25.24C12.3467 25.48 12.6 25.6267 12.84 25.68C13.1067 25.7067 13.5467 25.7333 14.16 25.76C14.8 25.7867 15.4267 25.8133 16.04 25.84C16.6533 25.84 17.0533 25.84 17.24 25.84H17.28C17.4133 25.84 17.48 25.88 17.48 25.96C17.48 26.0667 17.4133 26.1867 17.28 26.32C17.1467 26.4267 17 26.48 16.84 26.48C15.7733 26.48 14.5467 26.4533 13.16 26.4C11.8 26.3467 10.5067 26.32 9.28 26.32C8.96 26.32 8.65333 26.32 8.36 26.32C8.09333 26.32 7.82667 26.3333 7.56 26.36C7.16 26.36 6.56 26.3733 5.76 26.4C4.98667 26.4267 4.13333 26.4533 3.2 26.48C2.29333 26.48 1.41333 26.48 0.56 26.48H0.52ZM25.8181 26.96C25.1515 26.96 24.5115 26.88 23.8981 26.72C23.3115 26.5333 22.8448 26.2133 22.4981 25.76C22.3115 25.4933 22.0315 25.12 21.6581 24.64C21.3115 24.1333 21.1381 23.6533 21.1381 23.2C21.1381 22.88 21.2181 22.6267 21.3781 22.44C21.7515 21.96 22.0448 21.52 22.2581 21.12C22.4981 20.72 22.7381 20.24 22.9781 19.68C23.2181 19.0933 23.5115 18.32 23.8581 17.36C23.9915 17.0667 24.0981 16.7467 24.1781 16.4C24.2581 16.0533 24.4181 15.9467 24.6581 16.08C24.7648 16.1333 24.7648 16.4 24.6581 16.88C24.5515 17.3333 24.4715 17.7467 24.4181 18.12C24.3915 18.2533 24.3781 18.3867 24.3781 18.52C24.3781 18.6533 24.3781 18.7867 24.3781 18.92C24.3781 20.2533 24.6448 21.36 25.1781 22.24C25.7381 23.12 26.4448 23.7733 27.2981 24.2C28.1781 24.6 29.1115 24.8 30.0981 24.8C31.1915 24.8 32.2581 24.56 33.2981 24.08C34.3648 23.5733 35.2581 22.84 35.9781 21.88C36.6981 20.92 37.1115 19.76 37.2181 18.4C37.2715 17.52 37.0981 16.8267 36.6981 16.32C36.2981 15.8133 35.7515 15.44 35.0581 15.2C34.3648 14.96 33.5915 14.8 32.7381 14.72C31.9115 14.64 31.0848 14.5733 30.2581 14.52C28.2848 14.3867 26.7915 13.84 25.7781 12.88C24.7648 11.8933 24.2981 10.8267 24.3781 9.68C24.4581 8.4 24.9515 7.22667 25.8581 6.16C26.7648 5.09333 27.8981 4.16 29.2581 3.36C30.6181 2.56 32.0581 1.94666 33.5781 1.52C35.0981 1.09333 36.5248 0.879998 37.8581 0.879998C38.8981 0.879998 39.8181 1.02666 40.6181 1.32C41.4181 1.61333 42.0048 2.06667 42.3781 2.68C42.7515 3.32 42.9381 3.85333 42.9381 4.28C42.9381 4.54667 42.8715 4.81333 42.7381 5.08C42.6048 5.32 42.4048 5.6 42.1381 5.92C41.8181 6.34667 41.5381 6.70667 41.2981 7C41.0848 7.29333 40.8581 7.65333 40.6181 8.08C40.4048 8.48 40.1248 9.04 39.7781 9.76C39.6448 10.0533 39.4981 10.2 39.3381 10.2C39.2315 10.2 39.1781 10.1067 39.1781 9.92C39.1781 9.76 39.2315 9.58667 39.3381 9.4C39.5781 8.62667 39.6981 7.94667 39.6981 7.36C39.6981 6.37333 39.4448 5.54667 38.9381 4.88C38.4581 4.18666 37.8315 3.66667 37.0581 3.32C36.2848 2.94667 35.4581 2.76 34.5781 2.76C33.6715 2.76 32.7915 2.96 31.9381 3.36C31.1115 3.73333 30.4048 4.33333 29.8181 5.16C29.2581 5.96 28.9248 6.98667 28.8181 8.24C28.7648 8.98667 28.9248 9.58667 29.2981 10.04C29.6715 10.4933 30.1648 10.84 30.7781 11.08C31.4181 11.32 32.0715 11.4933 32.7381 11.6C33.4315 11.7067 34.0715 11.7733 34.6581 11.8C35.2448 11.8 35.6715 11.8133 35.9381 11.84C38.0981 11.92 39.5648 12.32 40.3381 13.04C41.1381 13.7333 41.5115 14.5733 41.4581 15.56C41.3515 16.9467 40.8581 18.32 39.9781 19.68C39.1248 21.0133 37.9781 22.24 36.5381 23.36C35.0981 24.4533 33.4581 25.3333 31.6181 26C29.7781 26.64 27.8448 26.96 25.8181 26.96ZM56.3206 27.12C54.854 27.12 53.4273 26.92 52.0406 26.52C50.6806 26.12 49.4673 25.48 48.4006 24.6C47.334 23.72 46.5073 22.5733 45.9206 21.16C45.334 19.8 45.1073 18.36 45.2406 16.84C45.374 15.0267 45.854 13.32 46.6806 11.72C47.5073 10.12 48.574 8.66667 49.8806 7.36C51.214 6.05333 52.6806 4.93333 54.2806 4C55.9073 3.06667 57.574 2.34667 59.2806 1.84C61.014 1.33333 62.6806 1.08 64.2806 1.08H64.4406C64.9206 1.08 65.4806 1.13333 66.1206 1.24C66.7873 1.34666 67.374 1.56 67.8806 1.88C68.3873 2.2 68.6406 2.69333 68.6406 3.36C68.6406 3.70667 68.5606 4.06667 68.4006 4.44C68.214 4.84 68.0406 5.25333 67.8806 5.68C67.7206 6.08 67.5606 6.49333 67.4006 6.92L66.2006 10.08L65.7206 9.72C65.7206 9.72 65.7873 9.53333 65.9206 9.16C66.0806 8.76 66.2273 8.30667 66.3606 7.8C66.5206 7.29333 66.614 6.88 66.6406 6.56C66.7206 5.6 66.4806 4.92 65.9206 4.52C65.3873 4.09333 64.7206 3.84 63.9206 3.76C63.1206 3.68 62.3606 3.64 61.6406 3.64C60.1206 3.64 58.614 3.89333 57.1206 4.4C55.6273 4.90667 54.254 5.62667 53.0006 6.56C51.774 7.49333 50.774 8.62667 50.0006 9.96C49.2273 11.2667 48.774 12.7467 48.6406 14.4C48.614 14.5867 48.6006 14.7733 48.6006 14.96C48.6006 15.12 48.6006 15.28 48.6006 15.44C48.6006 18.08 49.3606 20.1467 50.8806 21.64C52.4006 23.1333 54.7473 23.88 57.9206 23.88C59.414 23.88 60.9873 23.5867 62.6406 23C64.3206 22.3867 65.734 21.56 66.8806 20.52C67.174 20.2533 67.4406 19.9733 67.6806 19.68C67.9473 19.3867 68.214 19.0933 68.4806 18.8L68.8006 19.32C68.8006 19.32 68.654 19.48 68.3606 19.8C68.0673 20.0933 67.7073 20.48 67.2806 20.96C66.854 21.4133 66.4273 21.88 66.0006 22.36C65.6006 22.84 65.294 23.24 65.0806 23.56C64.6006 24.2267 64.1073 24.8267 63.6006 25.36C63.094 25.8933 62.414 26.2667 61.5606 26.48C60.734 26.6933 59.8673 26.8533 58.9606 26.96C58.054 27.0667 57.174 27.12 56.3206 27.12Z" fill="#5755B0"/>
</svg>
